<?xml version="1.0" standalone="no"?>
<!DOCTYPE svg PUBLIC "-//W3C//DTD SVG 20010904//EN"
 "http://www.w3.org/TR/2001/REC-SVG-20010904/DTD/svg10.dtd">
<svg version="1.0" xmlns="http://www.w3.org/2000/svg"
 width="2844.000000pt" height="2844.000000pt" viewBox="0 0 2844.000000 2844.000000"
 preserveAspectRatio="xMidYMid meet">
<metadata>
Created by potrace 1.14, written by Peter Selinger 2001-2017
</metadata>
<g transform="translate(0.000000,2844.000000) scale(0.100000,-0.100000)"
fill="#000000" stroke="none">
<path d="M17558 27835 c-2 -2 -50 -6 -107 -10 -120 -7 -158 -18 -223 -63 -26
-18 -50 -32 -55 -32 -5 0 -42 -21 -82 -46 -63 -39 -191 -106 -376 -196 -27
-13 -81 -42 -120 -65 -69 -40 -399 -205 -466 -232 -18 -8 -40 -23 -47 -33 -7
-10 -19 -18 -27 -18 -27 0 -165 -133 -241 -233 -110 -144 -261 -293 -489 -483
-66 -55 -138 -116 -160 -137 -59 -56 -85 -61 -274 -53 -91 3 -175 8 -187 10
-24 5 -55 -13 -111 -64 -70 -65 -437 -376 -548 -466 -60 -48 -139 -113 -175
-144 -61 -51 -138 -115 -181 -150 -10 -8 -34 -26 -53 -40 -20 -14 -36 -30 -36
-37 0 -6 -30 -38 -67 -70 -38 -32 -70 -61 -73 -64 -3 -4 -27 -21 -54 -38 -38
-24 -61 -31 -98 -31 -75 0 -149 -43 -248 -144 -47 -48 -116 -133 -153 -189
-82 -122 -110 -153 -155 -169 -26 -10 -44 -30 -82 -93 -83 -138 -112 -197
-117 -234 -2 -20 -15 -58 -29 -84 -13 -27 -24 -53 -24 -58 0 -6 -16 -35 -35
-65 -19 -30 -52 -96 -71 -147 -20 -51 -54 -130 -75 -175 -22 -46 -39 -88 -39
-93 0 -27 -69 -209 -118 -309 -31 -63 -58 -126 -60 -140 -2 -13 -25 -61 -53
-105 -86 -141 -159 -219 -221 -236 -24 -6 -64 -20 -90 -30 -26 -11 -54 -19
-64 -19 -31 0 -283 -138 -436 -240 -168 -111 -405 -233 -538 -276 -47 -15 -92
-33 -100 -40 -8 -7 -28 -16 -44 -20 -42 -10 -155 -71 -201 -108 -22 -18 -116
-84 -210 -147 -93 -63 -172 -116 -175 -119 -3 -3 -32 -23 -65 -45 -33 -22 -61
-43 -63 -47 -2 -5 -7 -8 -12 -8 -4 0 -68 -41 -141 -91 -157 -107 -308 -202
-399 -251 -104 -56 -122 -68 -236 -161 -60 -49 -163 -126 -229 -172 -67 -46
-136 -100 -154 -120 -18 -20 -61 -55 -94 -76 -66 -43 -311 -277 -386 -369 -24
-30 -47 -57 -51 -60 -3 -3 -30 -39 -60 -80 -30 -41 -59 -80 -65 -86 -5 -6 -30
-35 -55 -65 -132 -157 -207 -233 -279 -280 -78 -51 -325 -179 -346 -179 -7 0
-70 -45 -141 -100 -116 -91 -366 -257 -404 -270 -8 -3 -46 -25 -85 -50 -38
-25 -99 -61 -135 -79 -36 -19 -76 -41 -90 -50 -14 -9 -34 -22 -45 -28 -26 -16
-145 -73 -152 -73 -3 0 -29 -15 -57 -34 -75 -51 -139 -122 -175 -197 -18 -36
-55 -97 -84 -135 -29 -38 -61 -83 -71 -99 -11 -17 -58 -75 -105 -130 -99 -114
-92 -107 -191 -211 -41 -43 -113 -122 -160 -174 -47 -52 -91 -100 -97 -108
-14 -14 -109 -207 -174 -353 -23 -52 -46 -100 -52 -106 -5 -7 -6 -13 -2 -13 4
0 3 -6 -3 -12 -14 -19 -99 -220 -133 -318 -16 -47 -46 -112 -65 -145 -20 -33
-38 -69 -40 -80 -2 -11 -6 -31 -9 -45 -2 -14 -7 -45 -10 -70 -12 -91 -68 -297
-105 -392 -22 -53 -58 -154 -81 -225 -23 -70 -67 -180 -99 -243 -32 -63 -73
-155 -91 -205 -18 -49 -68 -160 -112 -245 -87 -168 -135 -263 -221 -437 -31
-62 -92 -174 -137 -249 -102 -171 -373 -584 -449 -684 -76 -100 -130 -183
-239 -374 -50 -86 -143 -237 -206 -334 -102 -158 -130 -192 -258 -322 -79 -80
-177 -177 -218 -215 -41 -39 -103 -101 -139 -139 -36 -38 -94 -87 -130 -111
-36 -23 -112 -80 -170 -126 -58 -46 -168 -127 -245 -181 -211 -146 -216 -150
-241 -191 -14 -20 -48 -65 -77 -100 -29 -34 -57 -70 -63 -79 -5 -9 -37 -47
-72 -85 -101 -110 -259 -322 -300 -404 -37 -71 -65 -114 -204 -314 -31 -44
-69 -109 -85 -145 -50 -111 -166 -286 -244 -371 -25 -26 -129 -167 -129 -173
0 -3 -21 -40 -46 -83 -94 -159 -207 -388 -218 -443 -2 -8 -6 -26 -9 -40 -4
-14 -9 -56 -11 -95 -3 -38 -8 -81 -10 -95 -3 -14 -7 -43 -11 -65 -5 -36 -48
-185 -95 -325 -39 -118 -92 -330 -116 -460 -21 -119 -30 -392 -15 -472 15 -80
67 -239 97 -300 13 -26 24 -54 24 -62 0 -8 45 -75 100 -148 73 -97 104 -148
116 -188 9 -30 22 -62 29 -70 6 -8 26 -40 44 -70 36 -62 49 -84 72 -120 9 -14
37 -65 63 -113 26 -49 59 -107 74 -130 26 -39 27 -46 27 -171 1 -115 4 -136
23 -173 12 -23 30 -44 40 -47 10 -4 28 -15 40 -26 11 -11 40 -32 64 -47 69
-44 136 -102 158 -137 11 -18 47 -66 80 -106 33 -41 67 -89 75 -107 9 -18 37
-61 64 -96 26 -34 73 -98 105 -142 31 -44 75 -102 97 -130 22 -27 60 -79 83
-115 54 -81 76 -104 112 -117 16 -6 90 -34 164 -63 74 -28 158 -54 185 -56 28
-2 97 -14 155 -25 58 -11 114 -23 125 -25 28 -5 153 -63 190 -88 67 -45 283
-147 340 -161 158 -38 435 -60 505 -39 14 4 169 8 345 10 366 2 513 9 770 39
22 2 72 7 110 11 39 3 72 7 75 9 3 2 46 6 95 10 50 4 97 9 105 10 20 4 197 18
235 19 17 1 56 16 88 33 32 17 90 44 130 59 40 15 77 30 82 34 6 4 93 40 195
80 234 92 241 96 380 195 63 45 153 107 200 138 86 57 185 131 267 200 25 21
57 46 72 55 14 9 142 134 286 277 317 318 350 348 494 439 62 39 275 137 331
151 58 15 182 74 280 134 58 35 161 93 230 129 166 86 233 122 371 203 64 38
163 91 220 119 90 44 149 81 209 132 8 7 65 51 125 98 61 46 115 88 120 93 26
21 170 126 255 185 52 36 117 85 143 109 27 23 76 60 110 83 34 22 67 44 73
49 39 31 98 62 154 79 36 11 99 33 140 50 45 17 95 30 125 30 28 1 72 9 99 19
44 17 50 22 64 67 28 86 99 138 191 138 68 0 182 -10 234 -22 94 -20 162 34
202 161 25 80 30 89 130 198 58 63 105 118 105 123 0 4 11 8 25 8 36 0 40 -34
16 -132 -11 -45 -23 -99 -25 -118 -3 -19 -7 -56 -11 -82 -6 -48 -37 -98 -60
-98 -28 0 -131 -129 -184 -231 -115 -221 -185 -293 -304 -315 -41 -7 -35 0
-180 -214 -101 -148 -96 -144 -181 -147 -111 -2 -154 -17 -207 -73 -26 -26
-50 -61 -53 -78 -4 -16 -15 -38 -24 -49 -9 -10 -24 -32 -32 -48 -15 -28 -18
-29 -90 -30 -73 -1 -185 -21 -205 -37 -66 -52 -183 -146 -193 -155 -7 -7 -49
-36 -95 -66 -66 -44 -93 -56 -139 -62 -32 -3 -61 -6 -64 -5 -4 1 -37 -58 -73
-130 -37 -73 -73 -136 -81 -140 -8 -4 -70 -3 -137 3 -95 8 -130 8 -164 -2 -49
-15 -105 -70 -139 -138 -22 -45 -47 -165 -55 -264 -13 -176 -157 -349 -426
-509 -88 -53 -166 -108 -205 -145 -65 -63 -83 -95 -196 -354 -28 -63 -61 -132
-74 -153 -91 -143 -222 -214 -347 -186 -20 4 -54 11 -75 14 -20 3 -44 9 -52
13 -16 8 -161 7 -220 -2 -158 -23 -409 -158 -555 -299 -49 -48 -126 -116 -170
-151 -44 -35 -95 -83 -113 -108 -18 -24 -55 -73 -82 -109 -183 -243 -237 -322
-277 -409 -25 -53 -58 -125 -75 -160 -16 -36 -52 -99 -79 -142 -28 -43 -67
-122 -89 -178 -21 -55 -49 -119 -61 -143 -47 -91 -187 -445 -220 -552 -11 -39
-36 -120 -55 -180 -29 -94 -52 -186 -71 -291 -3 -16 -7 -127 -9 -245 -2 -180
0 -232 17 -320 43 -236 89 -382 195 -623 41 -92 74 -169 74 -172 0 -12 105
-164 155 -225 61 -73 195 -206 240 -237 17 -11 66 -39 110 -63 44 -24 85 -46
90 -50 51 -36 307 -110 377 -109 29 0 132 -13 228 -30 96 -16 195 -32 220 -36
25 -3 56 -8 70 -10 102 -19 403 -26 510 -12 30 4 87 16 125 27 249 70 336 91
545 135 209 43 194 40 330 65 135 24 210 40 420 86 384 84 310 77 785 79 237
1 450 5 475 8 25 4 63 9 85 13 80 11 234 64 330 112 93 46 260 110 425 162 74
23 169 57 210 75 91 41 205 85 405 159 302 111 375 141 648 267 152 71 279
129 281 129 2 0 43 18 90 40 47 22 89 40 92 40 15 0 574 252 654 295 48 25
112 36 238 40 145 4 206 19 497 123 192 69 420 139 480 147 22 3 51 10 65 15
14 5 43 12 65 16 22 4 47 9 55 10 8 2 51 8 95 14 44 6 130 20 190 30 61 10
128 21 150 25 116 17 176 27 230 40 69 16 185 66 229 100 17 13 63 36 101 51
74 30 80 31 355 40 139 4 150 6 275 49 120 40 265 81 325 91 14 3 49 9 78 15
38 8 62 7 88 -1 44 -15 191 -8 289 14 96 20 261 65 310 83 22 8 54 19 72 24
86 26 253 94 303 123 199 117 714 354 944 435 49 18 111 47 137 66 26 19 76
48 111 66 55 27 143 83 158 99 3 3 50 32 105 64 55 32 123 75 150 95 95 70
500 329 605 386 58 32 130 73 160 90 59 35 203 111 473 248 93 47 246 138 340
201 95 63 210 134 257 157 47 24 112 61 145 84 63 43 117 76 174 108 19 10 80
49 135 85 56 36 146 94 201 128 55 35 127 83 160 107 57 42 106 74 220 145
142 88 452 305 530 371 32 28 65 51 72 51 13 0 163 150 190 191 35 53 105 116
238 217 191 144 286 242 352 364 52 94 53 98 57 198 3 56 8 110 10 119 3 9 7
27 10 41 2 14 13 63 24 109 l20 84 -28 36 c-16 20 -33 54 -39 76 -15 56 -14
176 3 227 8 24 22 81 31 128 23 113 36 142 80 175 20 16 57 55 82 88 26 33 83
101 127 152 45 50 101 120 125 154 25 34 109 123 189 199 146 138 223 226 237
271 7 23 9 38 19 138 2 23 13 61 24 85 11 24 35 75 52 113 17 39 60 117 94
175 91 151 97 166 108 249 5 41 18 91 28 111 18 32 41 105 46 140 1 8 6 26 11
40 14 37 18 103 18 340 0 201 -7 352 -20 410 -8 37 -31 137 -47 200 -9 39 -13
124 -12 290 1 235 1 235 33 340 18 58 44 143 57 189 46 156 117 334 149 371 7
8 25 38 41 65 15 28 44 73 65 100 20 28 47 73 58 100 31 72 43 92 133 222 204
296 262 385 412 628 88 143 172 289 187 325 45 112 151 304 229 416 19 28 67
98 106 155 40 57 80 113 91 124 10 11 55 72 98 135 118 171 246 341 342 454
35 42 84 125 154 266 134 267 240 459 355 647 52 83 128 218 170 300 41 81 87
160 102 176 21 22 27 41 33 100 8 76 48 181 88 227 12 14 47 66 78 115 30 50
65 106 78 125 12 19 36 58 54 85 17 28 53 73 79 100 26 28 65 73 87 100 22 28
48 58 60 68 89 79 130 128 157 187 16 36 33 73 38 82 6 10 10 22 10 28 0 6 20
52 44 103 24 50 47 110 51 132 8 43 7 137 -1 225 -3 30 -8 78 -10 105 -2 28
-6 75 -10 105 -3 31 -1 75 6 100 6 25 11 52 11 60 -9 158 -7 238 4 260 7 14
15 58 17 99 10 142 -57 312 -257 656 -48 83 -99 170 -113 195 -14 25 -35 61
-48 81 -12 20 -48 87 -80 150 -50 100 -70 132 -115 187 -22 26 -69 143 -90
219 -11 43 -29 101 -39 128 -23 58 -46 158 -55 230 -12 98 -14 121 -20 180 -4
33 -8 67 -10 75 -2 8 -7 42 -11 75 -3 33 -8 69 -10 80 -2 11 -7 90 -9 175 -5
143 -8 185 -21 295 -3 22 -23 112 -44 200 -21 88 -46 196 -55 240 -9 43 -20
84 -24 90 -5 5 -20 57 -34 115 -22 93 -38 155 -42 170 0 3 -4 27 -9 53 -4 27
-9 58 -11 69 -15 74 -18 171 -18 458 0 179 1 345 2 370 2 25 2 128 2 230 -1
195 -2 197 -66 435 -15 55 -31 116 -35 135 -4 19 -26 70 -48 114 -22 43 -50
105 -62 137 -14 36 -39 77 -66 105 -25 25 -55 60 -68 77 -29 38 -230 386 -274
474 -18 34 -36 64 -41 67 -5 4 -40 52 -77 109 -37 56 -97 143 -133 192 -36 50
-79 109 -94 132 -16 23 -74 86 -129 140 -115 112 -101 100 -193 176 -39 32
-81 67 -95 79 -48 41 -148 113 -206 149 -129 80 -449 284 -454 289 -3 3 -17
12 -33 20 -83 45 -366 235 -457 306 -58 45 -132 97 -165 114 -129 70 -203 115
-282 171 -82 58 -191 114 -358 185 -49 20 -106 47 -125 59 -91 57 -251 105
-345 105 -36 0 -71 -11 -143 -46 -115 -55 -726 -301 -867 -349 -250 -85 -644
-185 -805 -203 -242 -27 -666 41 -1080 173 -58 18 -157 48 -220 65 -63 18
-180 56 -260 85 -164 60 -278 92 -332 94 -54 2 -97 23 -172 85 -37 30 -129 88
-204 127 -75 40 -177 96 -226 126 -49 29 -93 53 -97 53 -5 0 -46 18 -91 40
-156 76 -332 128 -493 145 -33 3 -71 8 -85 10 -14 2 -61 7 -105 10 -198 15
-299 24 -350 30 -16 2 -64 7 -105 10 -41 4 -88 9 -105 11 -33 6 -213 13 -217
9z m443 -15699 c67 -40 154 -99 193 -133 22 -18 44 -33 49 -33 5 0 75 -44 156
-97 134 -89 234 -153 362 -232 26 -16 59 -46 75 -66 25 -34 29 -46 29 -109 0
-39 -8 -98 -17 -131 -24 -87 -37 -510 -28 -905 4 -151 3 -158 -27 -250 -17
-52 -47 -122 -66 -155 -41 -71 -157 -193 -242 -257 -104 -77 -285 -173 -415
-219 -94 -33 -171 -88 -286 -204 -145 -146 -267 -340 -339 -540 -18 -49 -40
-106 -48 -125 -8 -19 -23 -62 -32 -95 -9 -33 -23 -73 -30 -90 -7 -16 -30 -73
-50 -125 -21 -52 -65 -140 -99 -195 -59 -99 -126 -224 -126 -237 0 -3 -28 -55
-62 -115 -33 -59 -83 -155 -110 -213 -56 -119 -53 -112 -100 -200 -20 -36 -51
-105 -69 -154 -18 -48 -40 -91 -49 -93 -8 -3 -42 -16 -75 -28 -79 -31 -89 -23
-81 65 3 36 9 129 12 207 l7 141 -38 52 c-34 47 -143 137 -203 169 -35 19
-144 25 -188 11 -104 -32 -167 -75 -282 -187 -62 -62 -117 -113 -120 -113 -4
0 -36 4 -72 10 -36 5 -101 11 -145 14 l-80 6 -116 -114 c-64 -62 -125 -125
-134 -140 -26 -39 -69 -32 -125 20 -32 29 -91 54 -145 61 -77 9 -134 -28 -240
-153 -96 -114 -200 -211 -236 -220 -45 -11 -95 -6 -130 11 -39 21 -42 20 -64
-27 -26 -54 -126 -153 -198 -196 -31 -19 -107 -56 -169 -84 -230 -102 -380
-236 -410 -367 -6 -28 -16 -51 -22 -52 -104 -6 -237 -4 -259 4 -23 8 -31 6
-45 -9 -34 -39 -108 -130 -136 -169 -16 -22 -37 -47 -45 -56 -9 -8 -39 -42
-68 -75 -38 -44 -64 -63 -100 -76 -69 -25 -103 -60 -226 -238 l-66 -94 -103
-2 c-77 -1 -116 -6 -154 -21 -54 -21 -128 -73 -154 -108 -8 -11 -46 -56 -85
-100 -38 -44 -88 -107 -109 -140 -77 -118 -102 -143 -159 -155 -29 -6 -88 -27
-132 -47 -164 -76 -267 -160 -404 -329 -76 -95 -108 -150 -157 -275 -46 -115
-56 -130 -92 -120 -45 13 -164 5 -224 -14 -31 -10 -72 -33 -91 -50 -35 -32
-108 -163 -120 -216 -11 -45 -86 -114 -157 -144 -73 -31 -149 -88 -203 -152
-26 -31 -69 -206 -69 -278 1 -48 8 -74 35 -127 l35 -67 -32 -43 c-61 -84 -179
-208 -198 -208 -6 0 -52 -35 -103 -78 -67 -55 -105 -96 -136 -147 -56 -89
-178 -252 -215 -286 -16 -15 -62 -60 -102 -101 -44 -46 -101 -91 -147 -117
-65 -37 -83 -43 -133 -43 -122 0 -219 86 -273 243 -19 57 -22 87 -25 279 -3
248 8 372 41 450 12 30 26 71 30 90 4 19 11 41 16 50 4 8 52 121 106 250 125
302 128 305 474 636 41 38 108 106 149 149 79 82 171 165 311 279 46 37 120
103 164 145 85 81 152 143 305 281 52 47 135 124 185 171 49 48 106 101 125
119 19 18 58 53 85 79 68 63 193 172 230 200 16 13 71 61 122 107 50 47 126
113 169 147 43 34 94 79 113 100 19 21 51 47 70 57 20 10 95 78 166 151 72 72
195 187 275 254 80 67 161 137 181 156 82 77 323 281 454 384 122 97 142 115
258 235 51 52 178 181 282 286 105 105 264 268 355 361 91 93 199 198 241 234
42 35 97 90 123 122 49 60 405 417 416 417 4 0 159 152 346 338 186 186 389
379 449 430 108 89 221 202 438 432 59 63 124 128 145 143 72 55 136 114 317
292 478 472 563 554 610 591 28 21 52 42 55 45 3 3 41 30 85 59 44 30 109 80
145 112 35 33 91 77 125 99 80 52 88 60 171 159 39 47 84 99 100 116 53 57 79
89 104 124 14 19 30 39 36 45 42 40 158 184 354 440 38 50 82 98 98 107 67 40
150 41 213 4z"/>
</g>
</svg>
