<svg xmlns="http://www.w3.org/2000/svg" xmlns:xlink="http://www.w3.org/1999/xlink">

<symbol id="instagram" fill-rule="evenodd" clip-rule="evenodd" stroke-linejoin="round" stroke-miterlimit="1.414" viewBox="0 0 16 16"><path d="M8 0C5.827 0 5.555.01 4.702.048 3.85.088 3.27.222 2.76.42c-.526.204-.973.478-1.417.923-.445.444-.72.89-.923 1.417-.198.51-.333 1.09-.372 1.942C.008 5.555 0 5.827 0 8s.01 2.445.048 3.298c.04.852.174 1.433.372 1.942.204.526.478.973.923 1.417.444.445.89.72 1.417.923.51.198 1.09.333 1.942.372.853.04 1.125.048 3.298.048s2.445-.01 3.298-.048c.852-.04 1.433-.174 1.942-.372.526-.204.973-.478 1.417-.923.445-.444.72-.89.923-1.417.198-.51.333-1.09.372-1.942.04-.853.048-1.125.048-3.298s-.01-2.445-.048-3.298c-.04-.852-.174-1.433-.372-1.942-.204-.526-.478-.973-.923-1.417-.444-.445-.89-.72-1.417-.923-.51-.198-1.09-.333-1.942-.372C10.445.008 10.173 0 8 0zm0 1.44c2.136 0 2.39.01 3.233.048.78.036 1.203.166 1.485.276.374.145.64.318.92.598.28.28.453.546.598.92.11.282.24.705.276 1.485.038.844.047 1.097.047 3.233s-.01 2.39-.05 3.233c-.04.78-.17 1.203-.28 1.485-.15.374-.32.64-.6.92-.28.28-.55.453-.92.598-.28.11-.71.24-1.49.276-.85.038-1.1.047-3.24.047s-2.39-.01-3.24-.05c-.78-.04-1.21-.17-1.49-.28-.38-.15-.64-.32-.92-.6-.28-.28-.46-.55-.6-.92-.11-.28-.24-.71-.28-1.49-.03-.84-.04-1.1-.04-3.23s.01-2.39.04-3.24c.04-.78.17-1.21.28-1.49.14-.38.32-.64.6-.92.28-.28.54-.46.92-.6.28-.11.7-.24 1.48-.28.85-.03 1.1-.04 3.24-.04zm0 2.452c-2.27 0-4.108 1.84-4.108 4.108 0 2.27 1.84 4.108 4.108 4.108 2.27 0 4.108-1.84 4.108-4.108 0-2.27-1.84-4.108-4.108-4.108zm0 6.775c-1.473 0-2.667-1.194-2.667-2.667 0-1.473 1.194-2.667 2.667-2.667 1.473 0 2.667 1.194 2.667 2.667 0 1.473-1.194 2.667-2.667 2.667zm5.23-6.937c0 .53-.43.96-.96.96s-.96-.43-.96-.96.43-.96.96-.96.96.43.96.96z"/>
</symbol>
<symbol id="twitter" fill-rule="evenodd" clip-rule="evenodd" stroke-linejoin="round" stroke-miterlimit="1.414" viewBox="0 0 16 16"><path d="M16 3.038c-.59.26-1.22.437-1.885.517.677-.407 1.198-1.05 1.443-1.816-.634.37-1.337.64-2.085.79-.598-.64-1.45-1.04-2.396-1.04-1.812 0-3.282 1.47-3.282 3.28 0 .26.03.51.085.75-2.728-.13-5.147-1.44-6.766-3.42C.83 2.58.67 3.14.67 3.75c0 1.14.58 2.143 1.46 2.732-.538-.017-1.045-.165-1.487-.41v.04c0 1.59 1.13 2.918 2.633 3.22-.276.074-.566.114-.865.114-.21 0-.41-.02-.61-.058.42 1.304 1.63 2.253 3.07 2.28-1.12.88-2.54 1.404-4.07 1.404-.26 0-.52-.015-.78-.045 1.46.93 3.18 1.474 5.04 1.474 6.04 0 9.34-5 9.34-9.33 0-.14 0-.28-.01-.42.64-.46 1.2-1.04 1.64-1.7z"/>
</symbol>
<symbol id="linkedin" fill-rule="evenodd" clip-rule="evenodd" stroke-linejoin="round" stroke-miterlimit="1.414" viewBox="0 0 16 16"><path d="M13.632 13.635h-2.37V9.922c0-.886-.018-2.025-1.234-2.025-1.235 0-1.424.964-1.424 1.96v3.778h-2.37V6H8.51v1.04h.03c.318-.6 1.092-1.233 2.247-1.233 2.4 0 2.845 1.58 2.845 3.637v4.188zM3.558 4.955c-.762 0-1.376-.617-1.376-1.377 0-.758.614-1.375 1.376-1.375.76 0 1.376.617 1.376 1.375 0 .76-.617 1.377-1.376 1.377zm1.188 8.68H2.37V6h2.376v7.635zM14.816 0H1.18C.528 0 0 .516 0 1.153v13.694C0 15.484.528 16 1.18 16h13.635c.652 0 1.185-.516 1.185-1.153V1.153C16 .516 15.467 0 14.815 0z"/>
</symbol>
<symbol id="researchgate" fill-rule="evenodd" clip-rule="evenodd" stroke-linejoin="round" stroke-miterlimit="1.414" viewBox="0 0 16 16"><path d="M 0.14983051,0.09423729 V 31.992543 H 32.048136 V 0.09423729 Z M 3.0496765,2.9940833 H 29.14829 V 29.092697 H 3.0496765 Z M 20.686629,7.3466838 c -1.86025,0 -2.497718,1.3298737 -2.497718,2.2230263 v 2.3702849 c 0,1.203436 0.655501,2.353293 2.350462,2.353293 2.844748,-0.0029 2.50055,-2.155423 2.50055,-3.650294 h -2.223026 v 0.784431 h 1.31116 c 0,1.167187 -0.546258,1.951165 -1.585853,1.951165 -0.820656,0 -1.294169,-0.711797 -1.294169,-1.696296 V 9.7141369 c 0,-0.9120015 0.855726,-1.4385962 1.438594,-1.4385962 1.039595,0 1.438597,0.9118653 1.438597,0.9118653 l 0.784431,-0.5295612 c 0,0 -0.381626,-1.311161 -2.223028,-1.311161 z M 12.595946,11.82672 c -1.31218,0 -3.3160188,0.126301 -5.193669,0.0538 v 0.583368 c 1.1309399,0.218938 1.6028449,0.108789 1.6028449,1.750101 v 8.019887 c 0,1.658712 -0.4733549,1.531166 -1.6028449,1.750102 v 0.603191 c 0.546621,-0.01885 1.4924246,-0.07363 2.4580732,-0.07363 0.9120018,0 2.0977898,0.03738 2.6081628,0.07363 v -0.603191 c -1.458623,-0.20009 -1.897361,-0.03629 -1.897361,-1.750102 v -3.38976 c 0.492974,0.03625 0.913496,0.03398 1.568862,0.03398 1.239683,2.224181 2.423863,3.885363 3.098078,4.66977 1.220835,1.476022 3.173337,1.25824 3.647462,1.039301 v -0.546553 c -0.729312,-0.0014 -1.460209,-0.493245 -1.98798,-1.076114 -0.893153,-0.965649 -2.096589,-2.534171 -3.081087,-4.301626 1.641312,-0.401629 2.863032,-1.950646 2.863032,-3.483214 0,-2.296678 -1.769496,-3.352947 -4.083573,-3.352947 z m -0.382304,0.926025 c 1.71381,0 2.732766,0.893221 2.732766,2.534534 -0.0014,1.606515 -1.094284,2.678959 -2.916837,2.678959 -0.674215,0 -0.984295,-0.01755 -1.458419,-0.05381 v -5.105881 c 0.474124,-0.0551 1.09442,-0.0538 1.64249,-0.0538 z"/>
</symbol>
<symbol id="orcid" fill-rule="evenodd" clip-rule="evenodd" stroke-linejoin="round" stroke-miterlimit="1.414" viewBox="0 0 16 16"><path d="M16 0c-8.839 0-16 7.161-16 16s7.161 16 16 16c8.839 0 16-7.161 16-16s-7.161-16-16-16zM9.823 5.839c0.704 0 1.265 0.573 1.265 1.26 0 0.688-0.561 1.265-1.265 1.265-0.692-0.004-1.26-0.567-1.26-1.265 0-0.697 0.563-1.26 1.26-1.26zM8.864 9.885h1.923v13.391h-1.923zM13.615 9.885h5.197c4.948 0 7.125 3.541 7.125 6.703 0 3.439-2.687 6.699-7.099 6.699h-5.224zM15.536 11.625v9.927h3.063c4.365 0 5.365-3.312 5.365-4.964 0-2.687-1.713-4.963-5.464-4.963z"/>
</symbol>
<symbol id="rss" fill-rule="evenodd" clip-rule="evenodd" stroke-linejoin="round" stroke-miterlimit="1.414" viewBox="0 0 16 16"><path d="M12.8 16C12.8 8.978 7.022 3.2 0 3.2V0c8.777 0 16 7.223 16 16h-3.2zM2.194 11.61c1.21 0 2.195.985 2.195 2.196 0 1.21-.99 2.194-2.2 2.194C.98 16 0 15.017 0 13.806c0-1.21.983-2.195 2.194-2.195zM10.606 16h-3.11c0-4.113-3.383-7.497-7.496-7.497v-3.11c5.818 0 10.606 4.79 10.606 10.607z"/>
</symbol>
</svg>
