<?xml version="1.0" encoding="UTF-8" standalone="no"?>
<!-- Uploaded to: SVG Repo, www.svgrepo.com, Generator: SVG Repo Mixer Tools -->

<svg
   fill="#000000"
   width="800px"
   height="800px"
   viewBox="0 0 32 32"
   version="1.1"
   id="svg11"
   sodipodi:docname="researchgate.svg"
   inkscape:export-filename="researchgate.svg"
   inkscape:export-xdpi="3.5999999"
   inkscape:export-ydpi="3.5999999"
   inkscape:version="1.2.2 (b0a84865, 2022-12-01)"
   xmlns:inkscape="http://www.inkscape.org/namespaces/inkscape"
   xmlns:sodipodi="http://sodipodi.sourceforge.net/DTD/sodipodi-0.dtd"
   xmlns="http://www.w3.org/2000/svg"
   xmlns:svg="http://www.w3.org/2000/svg">
  <defs
     id="defs15" />
  <sodipodi:namedview
     id="namedview13"
     pagecolor="#ffffff"
     bordercolor="#000000"
     borderopacity="0.25"
     inkscape:showpageshadow="2"
     inkscape:pageopacity="0.0"
     inkscape:pagecheckerboard="0"
     inkscape:deskcolor="#d1d1d1"
     showgrid="false"
     inkscape:zoom="0.295"
     inkscape:cx="400"
     inkscape:cy="400"
     inkscape:window-width="1309"
     inkscape:window-height="456"
     inkscape:window-x="372"
     inkscape:window-y="251"
     inkscape:window-maximized="0"
     inkscape:current-layer="svg11" />
  <path
     d="M 0.14983051,0.09423729 V 31.992543 H 32.048136 V 0.09423729 Z M 3.0496765,2.9940833 H 29.14829 V 29.092697 H 3.0496765 Z M 20.686629,7.3466838 c -1.86025,0 -2.497718,1.3298737 -2.497718,2.2230263 v 2.3702849 c 0,1.203436 0.655501,2.353293 2.350462,2.353293 2.844748,-0.0029 2.50055,-2.155423 2.50055,-3.650294 h -2.223026 v 0.784431 h 1.31116 c 0,1.167187 -0.546258,1.951165 -1.585853,1.951165 -0.820656,0 -1.294169,-0.711797 -1.294169,-1.696296 V 9.7141369 c 0,-0.9120015 0.855726,-1.4385962 1.438594,-1.4385962 1.039595,0 1.438597,0.9118653 1.438597,0.9118653 l 0.784431,-0.5295612 c 0,0 -0.381626,-1.311161 -2.223028,-1.311161 z M 12.595946,11.82672 c -1.31218,0 -3.3160188,0.126301 -5.193669,0.0538 v 0.583368 c 1.1309399,0.218938 1.6028449,0.108789 1.6028449,1.750101 v 8.019887 c 0,1.658712 -0.4733549,1.531166 -1.6028449,1.750102 v 0.603191 c 0.546621,-0.01885 1.4924246,-0.07363 2.4580732,-0.07363 0.9120018,0 2.0977898,0.03738 2.6081628,0.07363 v -0.603191 c -1.458623,-0.20009 -1.897361,-0.03629 -1.897361,-1.750102 v -3.38976 c 0.492974,0.03625 0.913496,0.03398 1.568862,0.03398 1.239683,2.224181 2.423863,3.885363 3.098078,4.66977 1.220835,1.476022 3.173337,1.25824 3.647462,1.039301 v -0.546553 c -0.729312,-0.0014 -1.460209,-0.493245 -1.98798,-1.076114 -0.893153,-0.965649 -2.096589,-2.534171 -3.081087,-4.301626 1.641312,-0.401629 2.863032,-1.950646 2.863032,-3.483214 0,-2.296678 -1.769496,-3.352947 -4.083573,-3.352947 z m -0.382304,0.926025 c 1.71381,0 2.732766,0.893221 2.732766,2.534534 -0.0014,1.606515 -1.094284,2.678959 -2.916837,2.678959 -0.674215,0 -0.984295,-0.01755 -1.458419,-0.05381 v -5.105881 c 0.474124,-0.0551 1.09442,-0.0538 1.64249,-0.0538 z"
     id="path9"
     style="stroke-width:1.44992" />
</svg>
