<svg id="Layer_1" data-name="Layer 1" xmlns="http://www.w3.org/2000/svg" viewBox="0 0 2048 2048"><defs><style>.cls-1{fill:#fff;}</style></defs><path class="cls-1" d="M1540,476h984V2524H1540c2.29-.27,4.56-.72,6.86-.79a1148.51,1148.51,0,0,0,158.56-15.05c64.09-10.79,126.35-27.91,186.14-53.59,97.21-41.76,181-102.59,251.38-181.19,115-128.38,164-278.38,143.15-450.18a493.54,493.54,0,0,0-37.63-138.26c-32.63-74.89-82.41-136.49-146-187.22-42.58-34-89.27-61-139.15-82.7-3.16-1.37-4.36-3-4.72-6.53-2.68-26-4.77-52.09-8.7-77.91-7.88-51.76-22.33-101.7-44.91-149.08-39.74-83.41-99.87-146.79-184.11-186.15-48.5-22.66-99.79-34.72-152.94-39.54-58.51-5.3-116.5-2.65-173.74,11.2-87.74,21.23-162.08,64.91-221.3,133.37-12.28,14.19-23.24,29.52-35.15,44.77l147.62,101.25c1.29-1.79,2.28-3.12,3.21-4.48,31.06-45.07,72.66-76.29,124.74-92.78,65.47-20.72,131.62-20.37,197.53-2.31,56.48,15.48,99.55,48.9,128,100.52,18,32.58,28.53,67.65,35.19,104,.49,2.68.75,5.39,1.15,8.4a1029.55,1029.55,0,0,0-154.9-13.91c-57-.8-114,.4-170.39,10.13-56.18,9.69-109.88,26.72-159.83,54.63-49.5,27.66-91.57,63.71-122.8,111.41-45.42,69.39-59.39,145.72-47.24,227,13.18,88.2,57.39,158.08,129,210.52,64.64,47.32,138.25,70.52,217.41,77.3a509.67,509.67,0,0,0,145.68-8.74c112.29-22.82,199.55-82,260.22-179.58,39.38-63.34,61-133.07,73.72-206,1.81-10.41,3.38-20.87,5.24-32.34,11.15,7.64,21.79,14.47,31.94,22,39.4,29.12,72.34,64.14,94.65,108.07,36.12,71.11,43.93,146.34,29.56,224.12-11.38,61.61-37.33,117-76.78,165.46Q1928.7,2255.11,1775,2306c-68.38,22.51-139,32.23-210.59,35.86-70.63,3.58-140.87,0-210.67-11.73-72-12.1-141.14-33.17-206.15-66.88q-117.18-60.76-195.36-167.11c-46.65-63.35-80-133.41-104.35-208-22.38-68.61-36.51-139-45.17-210.56a1505.81,1505.81,0,0,1-10.65-156.51,1469,1469,0,0,1,10.71-199c6.48-54,16.18-107.3,30.2-159.82,21.68-81.24,52.87-158.39,98.95-229.1,40.59-62.27,90.75-115.34,151.84-157.89,48.16-33.55,100.42-58.84,156-77.34,81.13-27,164.81-38.69,250-40.81a946.54,946.54,0,0,1,179.7,12.82c58.84,9.82,116,25.57,170.81,49.22q166.17,71.65,265.17,223.19c43.23,66.41,73.48,138.62,95.51,214.48,1.13,3.91,2.3,7.81,3.53,12L2376,1123a7.84,7.84,0,0,0,.13-1.58c-.71-2.74-1.41-5.47-2.18-8.2-26.86-95.81-65.34-186.48-120-269.9-80-122.12-184.94-216.06-317.14-278.89-69.4-33-142.23-55.32-217.67-69.4a1101.46,1101.46,0,0,0-148.77-17.27C1560.2,477.3,1550.09,476.6,1540,476Z" transform="translate(-476 -476)"/><path d="M1540,476c10.12.6,20.23,1.3,30.35,1.8a1101.46,1101.46,0,0,1,148.77,17.27c75.44,14.08,148.27,36.42,217.67,69.4,132.2,62.83,237.1,156.77,317.14,278.89,54.67,83.42,93.15,174.09,120,269.9.77,2.73,1.47,5.46,2.18,8.2a7.84,7.84,0,0,1-.13,1.58l-171.46,45.74c-1.23-4.15-2.4-8-3.53-12-22-75.86-52.28-148.07-95.51-214.48q-98.79-151.73-265.17-223.19c-54.83-23.65-112-39.4-170.81-49.22a946.54,946.54,0,0,0-179.7-12.82c-85.17,2.12-168.85,13.81-250,40.81-55.61,18.5-107.87,43.79-156,77.34-61.09,42.55-111.25,95.62-151.84,157.89-46.08,70.71-77.27,147.86-98.95,229.1-14,52.52-23.72,105.86-30.2,159.82a1469,1469,0,0,0-10.71,199,1505.81,1505.81,0,0,0,10.65,156.51c8.66,71.57,22.79,142,45.17,210.56,24.32,74.56,57.7,144.62,104.35,208q78.22,106.26,195.36,167.11c65,33.71,134.12,54.78,206.15,66.88,69.8,11.73,140,15.31,210.67,11.73,71.61-3.63,142.21-13.35,210.59-35.86q153.6-50.58,255.57-176.15c39.45-48.51,65.4-103.85,76.78-165.46,14.37-77.78,6.56-153-29.56-224.12-22.31-43.93-55.25-79-94.65-108.07-10.15-7.49-20.79-14.32-31.94-22-1.86,11.47-3.43,21.93-5.24,32.34-12.67,72.92-34.34,142.65-73.72,206-60.67,97.57-147.93,156.76-260.22,179.58a509.67,509.67,0,0,1-145.68,8.74c-79.16-6.78-152.77-30-217.41-77.3-71.62-52.44-115.83-122.32-129-210.52-12.15-81.27,1.82-157.6,47.24-227,31.23-47.7,73.3-83.75,122.8-111.41,50-27.91,103.65-44.94,159.83-54.63,56.41-9.73,113.35-10.93,170.39-10.13a1029.55,1029.55,0,0,1,154.9,13.91c-.4-3-.66-5.72-1.15-8.4-6.66-36.39-17.24-71.46-35.19-104-28.44-51.62-71.51-85-128-100.52-65.91-18.06-132.06-18.41-197.53,2.31-52.08,16.49-93.68,47.71-124.74,92.78-.93,1.36-1.92,2.69-3.21,4.48l-147.62-101.25c11.91-15.25,22.87-30.58,35.15-44.77,59.22-68.46,133.56-112.14,221.3-133.37,57.24-13.85,115.23-16.5,173.74-11.2,53.15,4.82,104.44,16.88,152.94,39.54,84.24,39.36,144.37,102.74,184.11,186.15,22.58,47.38,37,97.32,44.91,149.08,3.93,25.82,6,51.92,8.7,77.91.36,3.48,1.56,5.16,4.72,6.53,49.88,21.67,96.57,48.75,139.15,82.7,63.64,50.73,113.42,112.33,146,187.22a493.54,493.54,0,0,1,37.63,138.26c20.85,171.8-28.18,321.8-143.15,450.18-70.39,78.6-154.17,139.43-251.38,181.19-59.79,25.68-122,42.8-186.14,53.59a1148.51,1148.51,0,0,1-158.56,15.05c-2.3.07-4.57.52-6.86.79h-58a53.52,53.52,0,0,0-5.88-.79,1116.27,1116.27,0,0,1-142.2-13.11c-69.79-11-137.69-28.86-203.13-55.72-150.84-61.92-268.42-163.1-354.86-300.91-51.72-82.46-87.73-171.66-113-265.39-26.71-99.15-40.31-200.29-45.82-302.64a1605.33,1605.33,0,0,1,.61-180.36c4.08-69.58,12-138.67,25.32-207.1,13.44-69.07,32.22-136.63,58-202.15,29.34-74.42,67-144.23,115.31-208.15q114.2-151.17,286.44-230c60.07-27.37,122.68-46.8,187.34-59.87a1089.4,1089.4,0,0,1,161.45-20c10.13-.51,20.25-1.19,30.37-1.79Zm240,1069.43c-1.64-.5-2.72-.92-3.84-1.15A847.21,847.21,0,0,0,1651.94,1528a1023,1023,0,0,0-116.42,0c-37.87,2.12-75.23,7.3-111.41,19.16-35.29,11.57-67.39,28.5-93.12,56-54.67,58.55-49.83,149.48,11,201.43,35.14,30,77.06,44,122,50.35,36.45,5.13,72.79,3.39,109-2.94,68.5-12,120.68-47.43,154.86-108.33C1762.27,1682.3,1773.56,1614.72,1780,1545.43Z" transform="translate(-476 -476)"/><path class="cls-1" d="M1482,476c-10.12.6-20.24,1.28-30.37,1.79a1089.4,1089.4,0,0,0-161.45,20c-64.66,13.07-127.27,32.5-187.34,59.87q-172.44,78.6-286.44,230c-48.29,63.92-86,133.73-115.31,208.15-25.82,65.52-44.6,133.08-58,202.15-13.31,68.43-21.24,137.52-25.32,207.1a1605.33,1605.33,0,0,0-.61,180.36c5.51,102.35,19.11,203.49,45.82,302.64,25.26,93.73,61.27,182.93,113,265.39,86.44,137.81,204,239,354.86,300.91,65.44,26.86,133.34,44.74,203.13,55.72a1116.27,1116.27,0,0,0,142.2,13.11,53.52,53.52,0,0,1,5.88.79H476V476Z" transform="translate(-476 -476)"/><path class="cls-1" d="M1780,1545.43c-6.43,69.29-17.72,136.87-52.18,198.28-34.18,60.9-86.36,96.35-154.86,108.33-36.17,6.33-72.51,8.07-109,2.94-45-6.33-86.87-20.33-122-50.35-60.82-52-65.66-142.88-11-201.43,25.73-27.55,57.83-44.48,93.12-56,36.18-11.86,73.54-17,111.41-19.16a1023,1023,0,0,1,116.42,0,847.21,847.21,0,0,1,124.21,16.31C1777.27,1544.51,1778.35,1544.93,1780,1545.43Z" transform="translate(-476 -476)"/></svg>