<?xml version="1.0" standalone="no"?>
<!DOCTYPE svg PUBLIC "-//W3C//DTD SVG 20010904//EN"
 "http://www.w3.org/TR/2001/REC-SVG-20010904/DTD/svg10.dtd">
<svg version="1.0" xmlns="http://www.w3.org/2000/svg"
 width="952.000000pt" height="952.000000pt" viewBox="0 0 952.000000 952.000000"
 preserveAspectRatio="xMidYMid meet">
<metadata>
Created by potrace 1.14, written by Peter Selinger 2001-2017
</metadata>
<g transform="translate(0.000000,952.000000) scale(0.100000,-0.100000)"
fill="#000000" stroke="none">
<path d="M66 9505 c-11 -6 -29 -26 -39 -45 -16 -31 -17 -51 -11 -160 3 -69 6
-142 5 -163 0 -21 6 -52 14 -67 8 -16 20 -62 25 -102 6 -40 12 -80 14 -88 9
-48 19 -86 26 -95 4 -5 20 -82 34 -170 14 -88 28 -171 31 -185 2 -14 8 -52 14
-85 6 -33 13 -76 16 -95 9 -49 40 -255 59 -385 9 -60 21 -137 27 -170 7 -33
18 -98 26 -145 38 -234 36 -226 46 -250 4 -8 11 -42 16 -75 26 -167 36 -209
78 -315 25 -63 49 -124 53 -135 4 -11 19 -49 34 -85 37 -93 76 -211 76 -230 0
-9 7 -30 15 -46 13 -26 13 -36 -1 -84 -8 -30 -22 -78 -30 -107 -8 -29 -14 -56
-13 -60 3 -13 -12 -65 -29 -97 -8 -16 -16 -43 -19 -60 -3 -17 -10 -37 -15 -43
-6 -7 -8 -13 -5 -13 3 0 -5 -33 -19 -72 -14 -40 -27 -80 -29 -89 -2 -8 -10
-32 -19 -52 -8 -20 -13 -37 -11 -37 2 0 -2 -19 -10 -41 -8 -23 -15 -55 -15
-71 0 -17 -11 -71 -24 -122 -13 -50 -30 -122 -36 -161 -6 -38 -20 -102 -31
-142 -10 -39 -19 -83 -19 -98 0 -14 -6 -56 -14 -93 -8 -37 -22 -110 -31 -162
-9 -52 -25 -138 -36 -191 -11 -53 -17 -103 -13 -112 3 -9 -1 -40 -10 -69 -28
-96 -47 -180 -52 -236 -3 -31 -10 -64 -15 -75 -6 -10 -9 -28 -8 -40 1 -12 -1
-40 -5 -62 -22 -126 -29 -163 -36 -190 -5 -16 -11 -63 -14 -103 -3 -41 -8 -77
-10 -80 -2 -4 -5 -30 -7 -57 -2 -28 -9 -66 -17 -85 -9 -20 -15 -70 -16 -116
-1 -84 9 -110 54 -134 24 -13 330 -92 375 -97 22 -2 94 -19 160 -38 138 -38
261 -65 291 -65 18 0 108 32 169 60 11 5 58 24 105 41 80 31 90 38 190 139 58
58 152 156 209 218 113 123 116 124 144 49 16 -42 46 -145 52 -176 2 -9 4 -16
5 -16 1 0 3 -7 5 -15 2 -8 11 -40 19 -70 8 -30 17 -68 20 -85 9 -47 45 -185
61 -235 18 -58 24 -101 15 -120 -4 -8 -12 -26 -18 -40 -6 -14 -21 -47 -33 -75
-13 -27 -24 -52 -25 -55 0 -3 -11 -26 -22 -52 -30 -64 -29 -103 7 -258 41
-175 49 -214 56 -275 9 -72 34 -145 62 -180 13 -16 50 -63 83 -104 33 -40 60
-76 60 -80 0 -8 96 -81 106 -81 7 0 40 -27 139 -114 103 -90 166 -156 200
-206 39 -59 285 -364 296 -368 5 -2 9 -9 9 -16 0 -7 11 -23 24 -35 13 -12 41
-48 62 -79 21 -31 44 -63 51 -69 6 -7 24 -39 38 -70 52 -111 126 -254 158
-306 19 -29 41 -69 50 -89 23 -49 70 -95 107 -103 16 -4 32 -11 35 -16 4 -5
17 -9 30 -9 13 0 25 -4 27 -8 3 -9 164 -67 213 -76 17 -4 41 -9 55 -12 14 -3
52 -9 85 -14 126 -19 141 -22 185 -38 40 -15 122 -17 790 -17 564 0 752 3 775
12 17 7 41 14 55 17 75 12 115 19 210 37 58 10 114 20 125 22 32 5 129 39 140
48 5 5 15 9 23 9 8 0 28 6 45 14 18 8 50 20 72 27 60 18 110 53 129 91 10 18
30 56 46 83 15 28 29 56 29 63 1 7 11 28 24 45 45 65 127 221 127 244 0 26 55
112 83 128 15 9 27 20 27 25 0 8 81 110 123 155 11 11 45 54 77 95 32 41 96
122 141 180 45 58 87 114 93 125 21 41 229 229 280 255 36 18 69 51 161 160
39 45 77 90 86 99 21 20 39 78 49 150 5 31 13 83 18 116 6 33 13 77 16 98 6
37 12 66 37 178 16 72 2 128 -57 229 -18 30 -41 82 -52 115 -20 59 -20 61 -1
170 10 61 23 128 28 150 5 22 24 101 42 175 50 214 68 268 91 284 20 14 27 9
157 -118 127 -124 230 -220 295 -274 16 -13 102 -51 193 -84 196 -72 182 -71
398 -13 55 15 134 34 175 42 151 29 178 36 325 76 183 50 210 69 202 145 -2
26 -16 92 -30 147 -14 55 -31 136 -37 180 -7 44 -18 105 -26 135 -8 30 -16 73
-19 95 -2 22 -11 59 -19 82 -8 23 -20 77 -26 119 -5 43 -17 90 -24 106 -8 15
-18 54 -21 86 -4 31 -15 84 -26 117 -10 33 -27 103 -38 155 -11 52 -22 102
-25 110 -3 8 -7 26 -10 40 -13 76 -39 190 -51 225 -7 22 -17 62 -20 88 -4 26
-15 67 -25 90 -11 23 -20 59 -20 80 0 21 -6 50 -14 65 -8 15 -18 54 -24 87
-15 86 -22 116 -32 136 -6 10 -10 28 -10 40 0 13 -12 61 -26 108 -15 48 -27
97 -28 112 -1 14 -8 36 -17 50 -9 13 -22 49 -28 79 -6 30 -18 61 -25 70 -8 8
-19 35 -26 60 -7 25 -16 50 -20 55 -5 6 -15 37 -24 71 -9 34 -23 77 -31 97 -8
20 -15 51 -15 69 0 35 49 173 99 283 17 36 31 72 31 80 0 7 23 73 51 147 28
73 55 156 59 183 4 28 14 77 23 110 15 63 32 157 42 237 3 26 10 50 15 53 5 3
11 36 15 73 3 37 12 85 20 107 8 22 17 63 20 90 7 51 68 320 119 525 15 57 38
162 56 251 12 57 35 158 51 224 17 66 32 134 34 151 1 18 5 36 8 41 3 4 8 33
12 63 4 30 11 63 16 72 5 9 9 25 9 36 0 19 17 83 45 167 38 113 25 233 -29
267 -43 27 -72 20 -218 -51 -68 -33 -163 -74 -209 -91 -46 -17 -97 -37 -114
-44 -16 -8 -50 -22 -75 -32 -25 -11 -92 -45 -149 -76 -57 -32 -106 -58 -109
-58 -3 0 -19 -10 -36 -23 -17 -12 -67 -40 -111 -62 -44 -21 -93 -49 -108 -62
-16 -13 -34 -23 -42 -23 -7 0 -18 -7 -25 -15 -6 -8 -15 -14 -18 -13 -18 4 -96
-28 -119 -50 -15 -13 -45 -33 -67 -43 -42 -19 -110 -57 -156 -87 -14 -9 -43
-26 -65 -37 -63 -33 -137 -77 -179 -107 -21 -15 -48 -28 -58 -28 -23 0 -75
-26 -80 -40 -2 -6 -21 -6 -58 1 -30 5 -91 11 -135 14 -44 2 -111 8 -150 15
-38 6 -86 13 -105 16 -19 2 -46 6 -60 9 -14 3 -81 12 -150 21 -69 8 -134 17
-145 19 -108 17 -172 29 -180 35 -23 17 -106 1 -182 -35 -43 -20 -96 -44 -118
-53 -22 -9 -42 -18 -45 -21 -9 -11 -50 -31 -62 -31 -13 0 -220 -99 -228 -109
-3 -3 -25 -16 -50 -29 -25 -13 -63 -34 -85 -47 -50 -30 -53 -30 -67 0 -6 14
-35 41 -65 61 -29 19 -53 39 -53 44 0 4 -15 17 -33 28 -40 23 -136 27 -176 6
-14 -8 -38 -14 -52 -14 -14 0 -43 -11 -64 -25 -20 -14 -51 -29 -69 -32 -25 -5
-209 -86 -278 -124 -30 -15 -336 -11 -392 6 -27 8 -106 44 -177 80 -71 36
-129 63 -129 60 0 -3 -19 4 -42 16 -23 12 -56 26 -73 31 -134 41 -171 44 -201
14 -8 -9 -24 -16 -34 -16 -10 0 -25 -8 -32 -18 -7 -11 -24 -25 -38 -32 -14 -7
-43 -32 -65 -56 l-41 -44 -39 28 c-22 15 -43 32 -48 39 -4 6 -33 23 -65 37
-31 15 -83 40 -114 56 -31 17 -62 30 -69 30 -7 0 -20 6 -28 14 -9 8 -41 28
-71 43 -30 16 -68 38 -84 48 -16 11 -40 20 -55 21 -14 1 -44 11 -66 22 -58 30
-117 37 -153 18 -16 -8 -101 -25 -188 -36 -88 -12 -175 -23 -194 -26 -19 -3
-51 -6 -70 -8 -19 -2 -51 -7 -70 -10 -19 -3 -55 -8 -80 -11 -25 -2 -121 -13
-213 -24 -166 -20 -168 -20 -187 -1 -11 11 -32 22 -47 26 -16 4 -50 23 -78 43
-52 38 -154 101 -163 101 -3 0 -29 16 -58 35 -29 19 -57 35 -62 35 -5 0 -17 9
-27 20 -10 11 -25 20 -33 20 -9 0 -23 6 -31 14 -17 14 -106 61 -186 98 -27 13
-54 29 -60 36 -12 14 -140 88 -305 176 -63 34 -124 67 -135 73 -18 10 -148 73
-285 137 -30 14 -62 26 -71 26 -9 0 -24 9 -34 20 -10 11 -23 20 -30 20 -7 0
-20 9 -29 19 -33 36 -149 51 -200 26z"/>
</g>
</svg>
